<?xml version="1.0" encoding="utf-8"?>
<!-- Generator: Adobe Illustrator 27.3.1, SVG Export Plug-In . SVG Version: 6.00 Build 0)  -->
<svg version="1.1" id="Layer_1" xmlns="http://www.w3.org/2000/svg" xmlns:xlink="http://www.w3.org/1999/xlink" x="0px" y="0px"
	 viewBox="0 0 512 512" style="enable-background:new 0 0 512 512;" xml:space="preserve">
<style type="text/css">
	.st0{fill:#F61829;}
	.st1{opacity:0.2;fill:#575A5A;enable-background:new    ;}
	.st2{fill:#565A5B;}
</style>
<g>
	<g>
		<path class="st0" d="M344.48,145.98c0,8.1-0.76,16.06-2.15,23.78h-0.04L186.5,169.8c0-12.14,4.93-23.15,12.9-31.12
			c7.93-7.97,18.93-12.9,31.07-12.9h66.7c0,0,0.08-0.04,0-0.08c-7.63-32.42-33.35-57.89-65.94-65.27
			c-6.24-1.43-12.73-2.15-19.4-2.15c-8.85,0-17.37,1.31-25.38,3.71c-19.06,5.78-35.38,17.79-46.51,33.73
			c-6.28,8.94-10.92,19.1-13.49,30.06c-1.52,6.49-2.32,13.28-2.32,20.2c0,8.26,1.14,16.23,3.25,23.82c2.7,9.57,7,18.51,12.56,26.44
			c8.05,11.51,20.07,22.43,33.65,29.22v47.64c-11.93-3.58-23.36-9.02-33.65-15.68c-10.71-6.91-20.36-15.35-28.63-24.96
			c-15.09-17.5-25.64-38.96-29.94-62.65c-1.39-7.72-2.15-15.68-2.15-23.82c0-6.87,0.55-13.62,1.52-20.2
			c5.86-38.24,28.04-71.09,59.2-91.24c13.91-8.98,29.64-15.43,46.51-18.72c8.22-1.6,16.7-2.4,25.38-2.4c6.58,0,13.07,0.46,19.4,1.39
			c57.43,8.43,102.92,53.67,111.65,110.97c1.01,6.62,1.56,13.32,1.56,20.2H344.48z"/>
		<path class="st1" d="M317.16,388.88c1.43,0.04,2.95,0.08,4.38,0.08s2.95,0,4.38-0.08h-8.81H317.16z"/>
	</g>
	<g>
		<path class="st2" d="M454.15,253.91c0,7.25-0.59,14.38-1.73,21.33c-3.88,24.24-14.38,46.25-29.56,64.21
			c-9.74,11.51-21.42,21.38-34.57,29.01c-10.12,5.95-21.08,10.54-32.68,13.62c-9.53,2.53-19.44,4.01-29.64,4.34H231.4v87.28
			c0,13.07-11.22,23.53-24.58,22.26c-11.64-1.14-20.15-11.55-20.15-23.23V340.73c0,0,0-0.08,0-0.13V181.65h44.65v157.82h11.76
			c19.4,0,57.6-0.04,58.27-0.08c14.34-0.67,41.66,2.53,64.17-9.57c8.77-4.72,16.28-11.43,22.73-18.97
			c8.69-10.12,15.05-22.26,18.38-35.59c1.73-6.83,2.61-14,2.61-21.33c0-8.31-1.14-16.32-3.29-23.91
			c-3.5-12.31-9.57-23.57-17.71-33.01c-8.14-9.57-18.3-17.33-29.81-22.68c-0.55-0.25-0.89-0.84-0.8-1.43l0.89-5.52
			c1.26-7.76,1.9-15.73,1.9-23.82c0-4.98-0.25-9.91-0.72-14.76c-0.08-0.93,0.76-1.64,1.64-1.35c9.49,2.95,18.51,6.96,26.9,11.89
			c12.78,7.42,24.16,16.95,33.69,28.04c15.14,17.5,25.72,38.96,30.02,62.65c1.43,7.76,2.15,15.73,2.15,23.91L454.15,253.91z"/>
		<path class="st0" d="M349.16,254.76c0,12.48-10.16,22.6-22.64,22.6h-82.09v-45.24h82.09C339,232.11,349.16,242.23,349.16,254.76z"
			/>
	</g>
</g>
</svg>
