<?xml version="1.0" encoding="UTF-8"?>
<svg id="Layer_1" data-name="Layer 1" xmlns="http://www.w3.org/2000/svg" viewBox="0 0 416.6 118.64">
  <defs>
    <style>
      .cls-1 {
        fill: #565a5b;
      }

      .cls-2 {
        fill: #f61829;
      }

      .cls-3 {
        fill: #575a5a;
        opacity: .2;
      }
    </style>
  </defs>
  <g>
    <g>
      <path class="cls-2" d="M66.54,33.14c0,1.92-.18,3.81-.51,5.64h-.01s-36.95,.01-36.95,.01c0-2.88,1.17-5.49,3.06-7.38,1.88-1.89,4.49-3.06,7.37-3.06h15.82s.02-.01,0-.02c-1.81-7.69-7.91-13.73-15.64-15.48-1.48-.34-3.02-.51-4.6-.51-2.1,0-4.12,.31-6.02,.88-4.52,1.37-8.39,4.22-11.03,8-1.49,2.12-2.59,4.53-3.2,7.13-.36,1.54-.55,3.15-.55,4.79,0,1.96,.27,3.85,.77,5.65,.64,2.27,1.66,4.39,2.98,6.27,1.91,2.73,4.76,5.32,7.98,6.93v11.3c-2.83-.85-5.54-2.14-7.98-3.72-2.54-1.64-4.83-3.64-6.79-5.92-3.58-4.15-6.08-9.24-7.1-14.86-.33-1.83-.51-3.72-.51-5.65,0-1.63,.13-3.23,.36-4.79,1.39-9.07,6.65-16.86,14.04-21.64,3.3-2.13,7.03-3.66,11.03-4.44,1.95-.38,3.96-.57,6.02-.57,1.56,0,3.1,.11,4.6,.33,13.62,2,24.41,12.73,26.48,26.32,.24,1.57,.37,3.16,.37,4.79Z"/>
      <path class="cls-3" d="M60.06,90.75c.34,.01,.7,.02,1.04,.02s.7,0,1.04-.02h-2.09Z"/>
    </g>
    <path class="cls-2" d="M116.63,47.93v8.11h10.89v5.14h-10.89v8.57h12.28v5.28h-18.76V42.65h18.76v5.28h-12.28Z"/>
    <path class="cls-2" d="M143.38,50.15c1.34-.77,2.88-1.16,4.61-1.16v6.81h-1.71c-2.04,0-3.57,.48-4.61,1.44-1.04,.96-1.55,2.63-1.55,5v12.79h-6.48v-25.66h6.48v3.98c.83-1.36,1.92-2.42,3.27-3.2Z"/>
    <path class="cls-2" d="M151.63,45.22c-.76-.73-1.14-1.63-1.14-2.71s.38-1.98,1.14-2.71c.76-.73,1.71-1.09,2.85-1.09s2.09,.36,2.85,1.09c.76,.73,1.14,1.63,1.14,2.71s-.38,1.98-1.14,2.71c-.76,.73-1.71,1.09-2.85,1.09s-2.09-.36-2.85-1.09Zm6.04,4.15v25.66h-6.48v-25.66h6.48Z"/>
    <path class="cls-2" d="M162.86,55.23c1.08-1.99,2.58-3.54,4.49-4.63,1.91-1.1,4.11-1.64,6.58-1.64,3.18,0,5.81,.8,7.9,2.39,2.08,1.59,3.48,3.82,4.19,6.69h-7c-.37-1.11-1-1.98-1.88-2.62-.88-.63-1.97-.95-3.27-.95-1.85,0-3.32,.67-4.4,2.01-1.08,1.34-1.62,3.25-1.62,5.72s.54,4.33,1.62,5.68c1.08,1.34,2.55,2.01,4.4,2.01,2.63,0,4.34-1.17,5.14-3.52h7c-.71,2.78-2.12,4.99-4.22,6.62-2.1,1.64-4.72,2.45-7.87,2.45-2.47,0-4.66-.55-6.58-1.65-1.92-1.1-3.41-2.64-4.49-4.63-1.08-1.99-1.62-4.32-1.62-6.97s.54-4.98,1.62-6.97Z"/>
    <path class="cls-2" d="M204.83,75.03l-8.71-10.93v10.93h-6.48V40.75h6.48v19.5l8.62-10.89h8.43l-11.3,12.88,11.4,12.79h-8.43Z"/>
    <path class="cls-2" d="M219.7,74.31c-1.67-.76-2.99-1.78-3.96-3.08s-1.5-2.73-1.6-4.31h6.53c.12,.99,.61,1.81,1.46,2.45s1.91,.97,3.17,.97,2.2-.25,2.9-.74c.69-.49,1.04-1.13,1.04-1.9,0-.83-.43-1.46-1.27-1.88-.85-.42-2.2-.87-4.05-1.37-1.92-.46-3.48-.94-4.7-1.44-1.22-.49-2.27-1.25-3.15-2.27-.88-1.02-1.32-2.39-1.32-4.12,0-1.42,.41-2.72,1.23-3.89,.82-1.17,1.99-2.1,3.52-2.78,1.53-.68,3.33-1.02,5.4-1.02,3.06,0,5.5,.76,7.32,2.29,1.82,1.53,2.83,3.59,3.01,6.18h-6.21c-.09-1.02-.52-1.83-1.27-2.43s-1.77-.9-3.03-.9c-1.17,0-2.08,.22-2.71,.65-.63,.43-.95,1.04-.95,1.81,0,.87,.43,1.52,1.3,1.97,.86,.45,2.21,.9,4.03,1.37,1.85,.46,3.38,.94,4.59,1.44,1.2,.49,2.25,1.26,3.13,2.29,.88,1.04,1.34,2.4,1.37,4.1,0,1.48-.41,2.81-1.23,3.98-.82,1.17-1.99,2.09-3.52,2.76-1.53,.66-3.31,1-5.35,1s-3.98-.38-5.65-1.14Z"/>
    <path class="cls-2" d="M244.34,73.8c-1.98-1.1-3.53-2.65-4.65-4.65-1.13-2.01-1.69-4.32-1.69-6.95s.58-4.94,1.74-6.95c1.16-2.01,2.74-3.56,4.75-4.66,2.01-1.1,4.25-1.64,6.72-1.64s4.71,.55,6.72,1.64c2.01,1.1,3.59,2.65,4.75,4.66,1.16,2.01,1.74,4.32,1.74,6.95s-.6,4.94-1.78,6.95c-1.19,2.01-2.8,3.56-4.82,4.65s-4.28,1.65-6.79,1.65-4.69-.55-6.67-1.65Zm9.98-4.86c1.03-.57,1.86-1.43,2.48-2.57,.62-1.14,.93-2.53,.93-4.17,0-2.44-.64-4.31-1.92-5.63-1.28-1.31-2.85-1.97-4.7-1.97s-3.4,.66-4.65,1.97c-1.25,1.31-1.88,3.19-1.88,5.63s.61,4.32,1.83,5.63c1.22,1.31,2.76,1.97,4.61,1.97,1.17,0,2.28-.28,3.31-.86Z"/>
    <path class="cls-2" d="M289.65,51.89c1.88,1.93,2.83,4.62,2.83,8.08v15.06h-6.49v-14.18c0-2.04-.51-3.6-1.53-4.7-1.02-1.1-2.41-1.64-4.17-1.64s-3.2,.55-4.24,1.64c-1.04,1.1-1.55,2.66-1.55,4.7v14.18h-6.48v-25.66h6.48v3.2c.87-1.11,1.97-1.98,3.31-2.62,1.34-.63,2.82-.95,4.42-.95,3.06,0,5.53,.97,7.41,2.9Z"/>
    <path class="cls-1" d="M319.83,57.57c-.82,1.51-2.1,2.73-3.85,3.66s-3.94,1.39-6.6,1.39h-5.42v12.41h-6.48V42.7h11.91c2.5,0,4.63,.43,6.39,1.3,1.76,.86,3.08,2.05,3.96,3.57,.88,1.51,1.32,3.23,1.32,5.14,0,1.73-.41,3.35-1.23,4.86Zm-6.74-1.41c.86-.82,1.3-1.97,1.3-3.45,0-3.15-1.76-4.73-5.28-4.73h-5.14v9.4h5.14c1.79,0,3.12-.41,3.98-1.23Z"/>
    <path class="cls-1" d="M330.96,40.75v34.28h-6.48V40.75h6.48Z"/>
    <path class="cls-1" d="M336.08,55.2c1.03-2.01,2.44-3.55,4.21-4.63s3.76-1.62,5.95-1.62c1.92,0,3.59,.39,5.03,1.16,1.44,.77,2.59,1.75,3.45,2.92v-3.66h6.53v25.66h-6.53v-3.75c-.83,1.2-1.98,2.2-3.45,2.99-1.47,.79-3.16,1.18-5.07,1.18-2.16,0-4.13-.56-5.91-1.67s-3.18-2.68-4.21-4.7c-1.04-2.02-1.55-4.35-1.55-6.97s.52-4.89,1.55-6.9Zm17.72,2.94c-.62-1.13-1.45-1.99-2.5-2.59-1.05-.6-2.18-.9-3.38-.9s-2.32,.29-3.34,.88-1.85,1.44-2.48,2.57c-.63,1.13-.95,2.46-.95,4.01s.32,2.9,.95,4.05c.63,1.16,1.47,2.05,2.5,2.66s2.14,.93,3.31,.93,2.33-.3,3.38-.9,1.88-1.47,2.5-2.59,.93-2.48,.93-4.05-.31-2.93-.93-4.05Z"/>
    <path class="cls-1" d="M372.38,69.7h11.44v5.33h-18.81v-5.23l11.21-15.1h-11.16v-5.33h18.62v5.23l-11.3,15.1Z"/>
    <path class="cls-1" d="M387.55,55.2c1.03-2.01,2.44-3.55,4.21-4.63s3.76-1.62,5.95-1.62c1.92,0,3.59,.39,5.03,1.16,1.44,.77,2.59,1.75,3.45,2.92v-3.66h6.53v25.66h-6.53v-3.75c-.83,1.2-1.98,2.2-3.45,2.99-1.47,.79-3.16,1.18-5.07,1.18-2.16,0-4.13-.56-5.91-1.67s-3.18-2.68-4.21-4.7c-1.04-2.02-1.55-4.35-1.55-6.97s.52-4.89,1.55-6.9Zm17.72,2.94c-.62-1.13-1.45-1.99-2.5-2.59-1.05-.6-2.18-.9-3.38-.9s-2.32,.29-3.34,.88-1.85,1.44-2.48,2.57-.95,2.46-.95,4.01,.32,2.9,.95,4.05,1.47,2.05,2.5,2.66,2.14,.93,3.31,.93,2.33-.3,3.38-.9,1.88-1.47,2.5-2.59c.62-1.13,.93-2.48,.93-4.05s-.31-2.93-.93-4.05Z"/>
  </g>
  <g>
    <path class="cls-1" d="M92.55,58.74c0,1.72-.14,3.41-.41,5.06-.92,5.75-3.41,10.97-7.01,15.23-2.31,2.73-5.08,5.07-8.2,6.88-2.4,1.41-5,2.5-7.75,3.23-2.26,.6-4.61,.95-7.03,1.03h-22.43v20.7c0,3.1-2.66,5.58-5.83,5.28-2.76-.27-4.78-2.74-4.78-5.51v-31.31s0-.02,0-.03V41.6h10.59v37.43h2.79c4.6,0,13.66-.01,13.82-.02,3.4-.16,9.88,.6,15.22-2.27,2.08-1.12,3.86-2.71,5.39-4.5,2.06-2.4,3.57-5.28,4.36-8.44,.41-1.62,.62-3.32,.62-5.06,0-1.97-.27-3.87-.78-5.67-.83-2.92-2.27-5.59-4.2-7.83-1.93-2.27-4.34-4.11-7.07-5.38-.13-.06-.21-.2-.19-.34l.21-1.31c.3-1.84,.45-3.73,.45-5.65,0-1.18-.06-2.35-.17-3.5-.02-.22,.18-.39,.39-.32,2.25,.7,4.39,1.65,6.38,2.82,3.03,1.76,5.73,4.02,7.99,6.65,3.59,4.15,6.1,9.24,7.12,14.86,.34,1.84,.51,3.73,.51,5.67Z"/>
    <path class="cls-2" d="M67.65,58.94c0,2.96-2.41,5.36-5.37,5.36h-19.47v-10.73h19.47c2.96,0,5.37,2.4,5.37,5.37Z"/>
  </g>
</svg>